<svg width="158" height="49" viewBox="0 0 158 49" fill="none" xmlns="http://www.w3.org/2000/svg">
<path d="M78.549 33.0782L76.4021 35.6682L74.2232 33.8552C72.3433 35.2365 70.1429 35.9272 67.6222 35.9272C64.3751 35.9272 61.7155 34.848 59.6433 32.6898C57.5925 30.5315 56.5671 27.6825 56.5671 24.1429C56.5671 20.6033 57.5925 17.7544 59.6433 15.5961C61.7155 13.4378 64.3751 12.3586 67.6222 12.3586C70.8693 12.3586 73.5182 13.4378 75.569 15.5961C77.6411 17.7544 78.6772 20.6033 78.6772 24.1429C78.6772 26.9055 77.9723 29.3444 76.5623 31.4595L78.549 33.0782ZM67.6222 15.9522C65.4005 15.9522 63.6915 16.7076 62.4952 18.2184C61.2989 19.7292 60.7008 21.704 60.7008 24.1429C60.7008 26.5818 61.2989 28.5566 62.4952 30.0674C63.6915 31.5782 65.4005 32.3336 67.6222 32.3336C69.1175 32.3336 70.3566 32.0207 71.3392 31.3948L68.4553 28.9667L70.5702 26.3767L73.5823 28.9667C74.2872 27.6717 74.6397 26.0638 74.6397 24.1429C74.6397 21.704 74.0309 19.7292 72.8132 18.2184C71.5956 16.7076 69.8652 15.9522 67.6222 15.9522Z" fill="#A8A8C1"/>
<path d="M94.468 33.402C93.0367 34.9991 91.0927 35.7977 88.636 35.7977C86.1793 35.7977 84.2247 34.9991 82.772 33.402C81.3408 31.8049 80.6251 29.8192 80.6251 27.4451C80.6251 25.0926 81.3408 23.1177 82.772 21.5206C84.2247 19.9019 86.1793 19.0925 88.636 19.0925C91.0927 19.0925 93.0367 19.9019 94.468 21.5206C95.9206 23.1177 96.6469 25.0926 96.6469 27.4451C96.6469 29.8192 95.9206 31.8049 94.468 33.402ZM91.7763 23.6249C91.0286 22.6753 89.9818 22.2005 88.636 22.2005C87.2902 22.2005 86.2327 22.6753 85.4637 23.6249C84.716 24.5746 84.3422 25.848 84.3422 27.4451C84.3422 29.0638 84.716 30.348 85.4637 31.2977C86.2327 32.2473 87.2902 32.7221 88.636 32.7221C89.9818 32.7221 91.0286 32.2473 91.7763 31.2977C92.5453 30.348 92.9299 29.0638 92.9299 27.4451C92.9299 25.848 92.5453 24.5746 91.7763 23.6249Z" fill="#A8A8C1"/>
<path d="M113.016 19.3839L106.927 35.4739H103.563L97.4745 19.3839H101.16L105.229 31.0387L109.299 19.3839H113.016Z" fill="#A8A8C1"/>
<path d="M128.277 28.0278H117.607C117.821 29.6466 118.397 30.8336 119.337 31.589C120.299 32.3444 121.431 32.7221 122.734 32.7221C124.357 32.7221 125.96 32.3228 127.54 31.5243L127.797 34.5675C126.173 35.3876 124.4 35.7977 122.478 35.7977C119.743 35.7977 117.618 34.9991 116.101 33.402C114.606 31.8049 113.858 29.8084 113.858 27.4127C113.858 25.0818 114.541 23.1177 115.909 21.5206C117.297 19.9019 119.177 19.0925 121.548 19.0925C123.578 19.0925 125.244 19.7292 126.547 21.0026C127.85 22.2544 128.502 23.9271 128.502 26.0206C128.502 26.5386 128.427 27.2077 128.277 28.0278ZM121.612 22.2005C119.519 22.2005 118.237 23.312 117.767 25.535H124.785C124.785 24.6069 124.518 23.8192 123.984 23.1717C123.471 22.5242 122.681 22.2005 121.612 22.2005Z" fill="#A8A8C1"/>
<path d="M140.187 19.0278L139.482 22.6213H138.136C137.495 22.6213 136.876 22.794 136.278 23.1393C135.701 23.4846 135.284 23.8947 135.028 24.3695V35.4739H131.311V19.3839H134.612L134.804 21.3911C136.214 19.8155 137.741 19.0278 139.386 19.0278H140.187Z" fill="#A8A8C1"/>
<path d="M158 19.3839L148.098 43.3085H144.349L147.938 34.5027L141.305 19.3839H145.343L149.701 30.2293L153.962 19.3839H158Z" fill="#A8A8C1"/>
<path d="M30.3748 18.8176V41.1425L41.1895 34.8362V12.1067L30.3748 18.8176Z" fill="#33369F"/>
<path d="M21.1287 0L0 11.6683L11.5824 18.8176L21.0954 13.4219L30.3747 18.8176L41.1894 12.1067L21.1287 0Z" fill="#B7B9E7"/>
<path d="M0 11.6682L11.6158 18.8176L11.5157 29.8451L24.4666 36.927L24.6001 48.9999L0 34.9036V11.6682Z" fill="#7173CD"/>
<path d="M21.0955 13.4219L30.3747 18.8176C30.3747 18.8176 30.4 29.9946 30.4 29.826C31.0741 30.1532 21.229 24.8878 21.229 24.8878L21.0955 13.4219Z" fill="#7173CD"/>
<path d="M11.5156 29.8451L21.2288 24.8878L21.0953 13.4219L11.6158 18.8176L11.5156 29.8451Z" fill="#33369F"/>
<path d="M24.4666 36.9269L11.5156 29.845L21.2288 24.8877L33.6457 31.5649L24.4666 36.9269Z" fill="#B7B9E7"/>
<path d="M24.6001 49.0002L33.4788 42.9637L33.6457 31.5652L24.4666 36.9272L24.6001 49.0002Z" fill="#33369F"/>
<path d="M1.13794 12.3765C4.60932 14.5348 8.14437 16.6613 11.6158 18.8196C14.7867 17.0322 17.9254 15.2095 21.0964 13.4222C24.2007 15.2095 27.2735 17.0303 30.3777 18.8177C33.5487 16.7943 36.7557 14.9087 39.911 12.8992L21.0984 1.48389C14.4561 5.126 7.81368 8.7344 1.13794 12.3765Z" fill="#B7B9E7"/>
</svg>
